<svg width="24" height="24" viewBox="0 0 24 24" fill="none" xmlns="http://www.w3.org/2000/svg">
  <path d="M6 7C6 4.79086 7.79086 3 10 3C12.2091 3 14 4.79086 14 7V11C14 13.2091 12.2091 15 10 15C7.79086 15 6 13.2091 6 11V7Z" stroke="currentColor" stroke-width="2"/>
  <path d="M18 7C18 4.79086 16.2091 3 14 3C11.7909 3 10 4.79086 10 7V11C10 13.2091 11.7909 15 14 15C16.2091 15 18 13.2091 18 11V7Z" stroke="currentColor" stroke-width="2"/>
  <path d="M10 11V16C10 18.2091 8.20914 20 6 20C3.79086 20 2 18.2091 2 16V13" stroke="currentColor" stroke-width="2"/>
  <path d="M14 11V16C14 18.2091 15.7909 20 18 20C20.2091 20 22 18.2091 22 16V13" stroke="currentColor" stroke-width="2"/>
</svg>
